<svg width="60" height="60" viewBox="0 0 60 60" fill="none" xmlns="http://www.w3.org/2000/svg">
<ellipse cx="9.57977" cy="9.57977" rx="9.57977" ry="9.57977" transform="matrix(-1 0 0 1 39.4062 20.1172)" fill="#9971FF"/>
<path d="M44.9062 6.94614C40.4079 3.94362 37.1622 2.78023 29.3391 2.15625C23.7121 8.67877 22.7903 13.0174 24.5492 21.7948L30.5366 20.3578C32.1045 13.1891 35.8391 10.5335 44.9062 6.94614Z" fill="#9971FF"/>
<path d="M56.6623 23.9277C55.5281 18.6396 54.0109 15.5434 48.8347 9.64452C40.2537 10.4016 36.5692 12.8711 31.7145 20.3922L37.0102 23.5338C43.1301 19.4847 47.6592 20.1824 56.6623 23.9277Z" fill="#9971FF"/>
<path d="M52.8122 44.6976C55.7499 40.1567 56.8666 36.8946 57.3783 29.0634C50.7757 23.5305 46.4243 22.671 37.6731 24.5557L39.1958 30.5218C46.3862 31.9868 49.0951 35.6828 52.8122 44.6976Z" fill="#9971FF"/>
<path d="M23.8962 3.31372C18.6161 4.48466 15.5306 6.02345 9.66792 11.2406C10.4848 19.8161 12.9799 23.4833 20.5347 28.2855L23.6392 22.9681C19.5476 16.8765 20.2137 12.3427 23.8962 3.31372Z" fill="#9971FF"/>
<path d="M7.04732 15.0333C4.10176 19.5692 2.97941 22.8293 2.45413 30.6596C9.04709 36.204 13.397 37.071 22.1515 35.2015L20.6392 29.2327C13.4513 27.7553 10.7488 24.0545 7.04732 15.0333Z" fill="#9971FF"/>
<path d="M3.3088 35.646C4.48725 40.9244 6.03042 44.0077 11.2559 49.863C19.8303 49.0339 23.4939 46.5336 28.2854 38.972L22.9635 35.875C16.8778 39.9752 12.343 39.3156 3.3088 35.646Z" fill="#9971FF"/>
<path d="M15.6089 53.3937C20.2716 56.1341 23.5785 57.11 31.4245 57.2856C36.6693 50.4519 37.3415 46.0676 35.0835 37.4052L29.1881 39.1823C28.0327 46.4289 24.4561 49.2937 15.6089 53.3937Z" fill="#9971FF"/>
<path d="M35.6494 56.6795C40.9318 55.5189 44.0203 53.9862 49.8932 48.7805C49.0932 40.2034 46.6052 36.5314 39.0599 31.7143L35.9449 37.0257C40.0246 43.1253 39.3496 47.6578 35.6494 56.6795Z" fill="#9971FF"/>
</svg>
