<svg width="36" height="33" viewBox="0 0 36 33" fill="none" xmlns="http://www.w3.org/2000/svg">
<path d="M8.72656 24H21.272L13.9923 31.765C13.4168 32.3789 12.6127 32.7273 11.7712 32.7273V32.7273C10.0897 32.7273 8.72656 31.3642 8.72656 29.6827V24Z" fill="white"/>
<path d="M29 0C32.866 0 36 3.13401 36 7V17C36 20.866 32.866 24 29 24H7C3.13401 24 0 20.866 0 17V7C2.57711e-07 3.13401 3.13401 6.44256e-08 7 0H29ZM10.5 10C9.67157 10 9 10.6716 9 11.5C9 12.3284 9.67157 13 10.5 13C11.3284 13 12 12.3284 12 11.5C12 10.6716 11.3284 10 10.5 10ZM17.5 10C16.6716 10 16 10.6716 16 11.5C16 12.3284 16.6716 13 17.5 13C18.3284 13 19 12.3284 19 11.5C19 10.6716 18.3284 10 17.5 10ZM24.5 10C23.6716 10 23 10.6716 23 11.5C23 12.3284 23.6716 13 24.5 13C25.3284 13 26 12.3284 26 11.5C26 10.6716 25.3284 10 24.5 10Z" fill="white"/>
</svg>
