<svg width="80" height="79" viewBox="0 0 80 79" fill="none" xmlns="http://www.w3.org/2000/svg">
<path d="M40 0C17.91 0 0 17.91 0 40C0 58.7433 12.9067 74.4267 30.3067 78.7667C30.12 78.2267 30 77.6 30 76.8233V69.9867C28.3767 69.9867 25.6567 69.9867 24.9733 69.9867C22.2367 69.9867 19.8033 68.81 18.6233 66.6233C17.3133 64.1933 17.0867 60.4767 13.84 58.2033C12.8767 57.4467 13.61 56.5833 14.72 56.7C16.77 57.28 18.47 58.6867 20.07 60.7733C21.6633 62.8633 22.4133 63.3367 25.39 63.3367C26.8333 63.3367 28.9933 63.2533 31.0267 62.9333C32.12 60.1567 34.01 57.6 36.32 56.3933C23 55.0233 16.6433 48.3967 16.6433 39.4C16.6433 35.5267 18.2933 31.78 21.0967 28.6233C20.1767 25.49 19.02 19.1 21.45 16.6667C27.4433 16.6667 31.0667 20.5533 31.9367 21.6033C34.9233 20.58 38.2033 20 41.65 20C45.1033 20 48.3967 20.58 51.39 21.61C52.25 20.5667 55.8767 16.6667 61.8833 16.6667C64.3233 19.1033 63.1533 25.52 62.2233 28.6467C65.01 31.7967 66.65 35.5333 66.65 39.4C66.65 48.39 60.3033 55.0133 47.0033 56.39C50.6633 58.3 53.3333 63.6667 53.3333 67.71V76.8233C53.3333 77.17 53.2567 77.42 53.2167 77.7167C68.8033 72.2533 80 57.4533 80 40C80 17.91 62.09 0 40 0Z" fill="white"/>
</svg>
