<svg width="117" height="22" viewBox="0 0 117 22" fill="none" xmlns="http://www.w3.org/2000/svg">
<path d="M48 10.6094C53.9296 8.3525 56.4495 6.03214 58.6066 0.00277279C60.757 6.02134 62.9064 8.50704 69.2132 10.6094C63.2837 12.5094 59.9871 15.2138 58.6066 21.216C56.6398 15.0873 53.9207 12.9777 48 10.6094Z" fill="#171717"/>
<path d="M0 9.60938C4.74368 7.80387 6.75959 5.94759 8.48528 1.12409C10.2056 5.93894 11.9251 7.92751 16.9706 9.60938C12.227 11.1294 9.58971 13.2929 8.48528 18.0947C6.91183 13.1917 4.73656 11.504 0 9.60938Z" fill="#171717"/>
<path d="M100 9.60938C104.744 7.80387 106.76 5.94759 108.485 1.12409C110.206 5.93894 111.925 7.92751 116.971 9.60938C112.227 11.1294 109.59 13.2929 108.485 18.0947C106.912 13.1917 104.737 11.504 100 9.60938Z" fill="#171717"/>
</svg>
