<svg width="36" height="33" viewBox="0 0 36 33" fill="none" xmlns="http://www.w3.org/2000/svg">
<path d="M34.2602 0.74327C33.041 -0.109309 31.506 -0.23695 30.1593 0.404529L1.54141 15.4793C-0.605584 16.6101 -0.479579 19.7029 1.73124 20.6995C2.20416 20.9122 2.61654 21.0726 2.93892 21.161L6.44742 22.0381C7.65674 22.3425 8.95279 22.1183 9.99356 21.4244L24.8654 10.0038C25.2042 9.74526 25.682 9.78617 25.9667 10.1004C26.2547 10.4113 26.2547 10.8908 25.9684 11.205L15.2596 22.9365C14.7817 23.4176 14.5608 24.0427 14.6312 24.6793C14.7016 25.3159 15.0518 25.8772 15.5918 26.2208L15.6491 26.2503L28.6505 32.4409C30.642 33.39 32.9739 32.0874 33.2128 29.8946L35.98 4.47924C36.124 2.995 35.4826 1.59912 34.2602 0.74327Z" fill="white"/>
</svg>
