<svg width="150" height="150" viewBox="0 0 150 150" fill="none" xmlns="http://www.w3.org/2000/svg">
<ellipse cx="23.9494" cy="23.9494" rx="23.9494" ry="23.9494" transform="matrix(-1 0 0 1 98.5156 50.293)" fill="#9971FF"/>
<path d="M112.266 17.3653C101.02 9.85904 92.9055 6.95058 73.3478 5.39062C59.2802 21.6969 56.9757 32.5436 61.3731 54.487L76.3415 50.8946C80.2613 32.9728 89.5977 26.3338 112.266 17.3653Z" fill="#9971FF"/>
<path d="M141.656 59.8192C138.82 46.5989 135.027 38.8586 122.087 24.1113C100.634 26.004 91.4231 32.1778 79.2862 50.9806L92.5254 58.8344C107.825 48.7118 119.148 50.456 141.656 59.8192Z" fill="#9971FF"/>
<path d="M132.027 111.742C139.371 100.39 142.163 92.2346 143.442 72.6565C126.935 58.8242 116.057 56.6755 94.1787 61.3872L97.9855 76.3025C115.962 79.9649 122.734 89.2051 132.027 111.742Z" fill="#9971FF"/>
<path d="M59.7404 8.2843C46.5402 11.2117 38.8266 15.0586 24.1698 28.1016C26.2119 49.5404 32.4498 58.7083 51.3367 70.7138L59.0981 57.4202C48.8691 42.1913 50.5343 30.8568 59.7404 8.2843Z" fill="#9971FF"/>
<path d="M17.6144 37.5834C10.2505 48.923 7.44461 57.0732 6.13142 76.6491C22.6138 90.51 33.4887 92.6775 55.3749 88.0037L51.594 73.0818C33.6242 69.3883 26.868 60.1364 17.6144 37.5834Z" fill="#9971FF"/>
<path d="M8.27199 89.115C11.2181 102.311 15.076 110.019 28.1398 124.657C49.5757 122.585 58.7347 116.334 70.7134 97.4299L57.4088 89.6875C42.1944 99.9381 30.8575 98.289 8.27199 89.115Z" fill="#9971FF"/>
<path d="M39.0183 133.482C50.675 140.333 58.9423 142.773 78.5573 143.212C91.6694 126.128 93.3498 115.167 87.7048 93.5112L72.9663 97.9537C70.0777 116.07 61.1363 123.232 39.0183 133.482Z" fill="#9971FF"/>
<path d="M89.1196 141.699C102.326 138.797 110.047 134.965 124.729 121.951C122.729 100.509 116.509 91.3284 97.6459 79.2858L89.8584 92.5642C100.057 107.813 98.37 119.144 89.1196 141.699Z" fill="#9971FF"/>
</svg>
