<svg width="100" height="100" viewBox="0 0 100 100" fill="none" xmlns="http://www.w3.org/2000/svg">
<circle cx="50" cy="50" r="49.75" fill="#030303" stroke="#B0B0B0" stroke-width="0.5"/>
<path d="M50.5801 13.6611C46.8579 17.9915 44.7071 21.5848 43.7666 25.5332C42.8324 29.4554 43.0861 33.7556 44.2236 39.5186L51.874 37.6826C52.9417 32.9037 54.7394 29.5894 57.7988 26.874C60.8031 24.2077 65.0089 22.1334 70.875 19.793C68.0297 17.923 65.5397 16.6108 62.5449 15.6631C59.4331 14.6783 55.7665 14.0798 50.5801 13.6611Z" fill="#030303" stroke="#F2F2F2" stroke-width="0.5"/>
<path d="M76.5951 23.7372C70.9082 24.2494 66.8621 25.3287 63.4363 27.5052C60.0333 29.6673 57.2192 32.928 54.0195 37.8539L60.7852 41.8689C64.8811 39.1852 68.4797 38.0607 72.5662 38.2451C76.579 38.4263 81.0408 39.8691 86.879 42.2783C86.1413 38.9544 85.2698 36.2781 83.7823 33.5114C82.2365 30.6365 80.0235 27.6519 76.5951 23.7372Z" fill="#030303" stroke="#F2F2F2" stroke-width="0.5"/>
<path d="M87.9346 49.71C83.5516 46.0504 79.9282 43.9513 75.967 43.0675C72.0318 42.1895 67.7357 42.5058 61.9897 43.726L63.9361 51.3493C68.7291 52.3484 72.068 54.0984 74.8266 57.1185C77.5358 60.0844 79.6712 64.2594 82.0955 70.0917C83.9242 67.22 85.1998 64.7112 86.1045 61.7033C87.0445 58.5775 87.5904 54.9022 87.9346 49.71Z" fill="#030303" stroke="#F2F2F2" stroke-width="0.5"/>
<path d="M24.2732 25.7237C24.8249 31.407 25.9324 35.4456 28.1326 38.8563C30.3183 42.2442 33.5985 45.0357 38.5464 48.201L42.514 41.4073C39.8019 37.3301 38.6524 33.7393 38.8083 29.6514C38.9615 25.6374 40.3731 21.1655 42.7415 15.3105C39.4229 16.0714 36.7528 16.9615 33.9967 18.4683C31.1327 20.0341 28.1637 22.2679 24.2732 25.7237Z" fill="#030303" stroke="#F2F2F2" stroke-width="0.5"/>
<path d="M14.5606 51.6347C18.9372 55.3019 22.557 57.4072 26.5166 58.298C30.4503 59.1828 34.747 58.8738 40.4951 57.6636L38.5619 50.037C33.7707 49.0295 30.4348 47.2738 27.6814 44.2489C24.9774 41.2784 22.8491 37.0996 20.435 31.2631C18.6013 34.1317 17.3213 36.6383 16.4115 39.6446C15.466 42.7688 14.9137 46.4431 14.5606 51.6347Z" fill="#030303" stroke="#F2F2F2" stroke-width="0.5"/>
<path d="M26.2434 77.3229C31.9258 76.763 35.9627 75.6498 39.3701 73.4446C42.7548 71.2541 45.5415 67.9698 48.6997 63.0172L41.9006 59.0591C37.8273 61.7771 34.2383 62.9318 30.1504 62.7816C26.1363 62.6342 21.6624 61.2288 15.8043 58.8687C16.5699 62.1864 17.4638 64.8552 18.9745 67.6093C20.5443 70.4712 22.7822 73.4371 26.2434 77.3229Z" fill="#030303" stroke="#F2F2F2" stroke-width="0.5"/>
<path d="M53.1523 87.3158C56.6207 82.7797 58.5625 79.0693 59.2757 75.0735C59.9841 71.1043 59.4849 66.8257 58.0197 61.1372L50.4868 63.4076C49.6941 68.2398 48.089 71.6515 45.1898 74.5374C42.3429 77.3712 38.2626 79.6826 32.5399 82.3546C35.4875 84.0588 38.0485 85.2264 41.0925 86.0014C44.2556 86.8066 47.9504 87.1945 53.1523 87.3158Z" fill="#030303" stroke="#F2F2F2" stroke-width="0.5"/>
<path d="M77.8583 76.0231C77.3177 70.3386 76.2181 66.2978 74.0246 62.8829C71.8456 59.4906 68.5709 56.6928 63.6292 53.5177L59.6482 60.3036C62.3523 64.3862 63.4948 67.9792 63.3308 72.0667C63.1698 76.0805 61.7494 80.5496 59.3695 86.4C62.6896 85.6456 65.3614 84.7607 68.1205 83.2593C70.9875 81.6991 73.9609 79.4712 77.8583 76.0231Z" fill="#030303" stroke="#F2F2F2" stroke-width="0.5"/>
<path d="M51.1279 37.8164C44.1485 37.8164 38.4904 43.4745 38.4902 50.4541C38.4902 57.4339 44.1484 63.0927 51.1279 63.0928C58.1075 63.0928 63.7656 57.4339 63.7656 50.4541C63.7654 43.4745 58.1074 37.8164 51.1279 37.8164Z" fill="#030303" stroke="white" stroke-width="0.5"/>
<path d="M47.5801 16.1611C43.8579 20.4915 41.7071 24.0848 40.7666 28.0332C39.8324 31.9554 40.0861 36.2556 41.2236 42.0186L48.874 40.1826C49.9417 35.4037 51.7394 32.0894 54.7988 29.374C57.8031 26.7077 62.0089 24.6334 67.875 22.293C65.0297 20.423 62.5397 19.1108 59.5449 18.1631C56.4331 17.1783 52.7665 16.5798 47.5801 16.1611Z" fill="#030303" stroke="#F2F2F2" stroke-width="0.5"/>
<path d="M73.5951 26.2372C67.9082 26.7494 63.8621 27.8287 60.4363 30.0052C57.0333 32.1673 54.2192 35.428 51.0195 40.3539L57.7852 44.3689C61.8811 41.6852 65.4797 40.5607 69.5662 40.7451C73.579 40.9263 78.0408 42.3691 83.879 44.7783C83.1413 41.4544 82.2698 38.7781 80.7823 36.0114C79.2365 33.1365 77.0235 30.1519 73.5951 26.2372Z" fill="#030303" stroke="#F2F2F2" stroke-width="0.5"/>
<path d="M84.9346 52.21C80.5516 48.5504 76.9282 46.4513 72.967 45.5675C69.0318 44.6895 64.7357 45.0058 58.9897 46.226L60.9361 53.8493C65.7291 54.8484 69.068 56.5984 71.8266 59.6185C74.5358 62.5844 76.6712 66.7594 79.0955 72.5917C80.9242 69.72 82.1998 67.2112 83.1045 64.2033C84.0445 61.0775 84.5904 57.4022 84.9346 52.21Z" fill="#030303" stroke="#F2F2F2" stroke-width="0.5"/>
<path d="M21.2732 28.2237C21.8249 33.907 22.9324 37.9456 25.1326 41.3563C27.3183 44.7442 30.5985 47.5357 35.5464 50.701L39.514 43.9073C36.8019 39.8301 35.6524 36.2393 35.8083 32.1514C35.9615 28.1374 37.3731 23.6655 39.7415 17.8105C36.4229 18.5714 33.7528 19.4615 30.9967 20.9683C28.1327 22.5341 25.1637 24.7679 21.2732 28.2237Z" fill="#030303" stroke="#F2F2F2" stroke-width="0.5"/>
<path d="M11.5606 54.1347C15.9372 57.8019 19.557 59.9072 23.5166 60.798C27.4503 61.6828 31.747 61.3738 37.4951 60.1636L35.5619 52.537C30.7707 51.5295 27.4348 49.7738 24.6814 46.7489C21.9774 43.7784 19.8491 39.5996 17.435 33.7631C15.6013 36.6317 14.3213 39.1383 13.4115 42.1446C12.466 45.2688 11.9137 48.9431 11.5606 54.1347Z" fill="#030303" stroke="#F2F2F2" stroke-width="0.5"/>
<path d="M23.2434 79.8229C28.9258 79.263 32.9627 78.1498 36.3701 75.9446C39.7548 73.7541 42.5415 70.4698 45.6997 65.5172L38.9006 61.5591C34.8273 64.2771 31.2383 65.4318 27.1504 65.2816C23.1363 65.1342 18.6624 63.7288 12.8043 61.3687C13.5699 64.6864 14.4638 67.3552 15.9745 70.1093C17.5443 72.9712 19.7822 75.9371 23.2434 79.8229Z" fill="#030303" stroke="#F2F2F2" stroke-width="0.5"/>
<path d="M50.1523 89.8158C53.6207 85.2797 55.5625 81.5693 56.2757 77.5735C56.9841 73.6043 56.4849 69.3257 55.0197 63.6372L47.4868 65.9076C46.6941 70.7398 45.089 74.1515 42.1898 77.0374C39.3429 79.8712 35.2626 82.1826 29.5399 84.8546C32.4875 86.5588 35.0485 87.7264 38.0925 88.5014C41.2556 89.3066 44.9504 89.6945 50.1523 89.8158Z" fill="#030303" stroke="#F2F2F2" stroke-width="0.5"/>
<path d="M74.8583 78.5231C74.3177 72.8386 73.2181 68.7978 71.0246 65.3829C68.8456 61.9906 65.5709 59.1928 60.6292 56.0177L56.6482 62.8036C59.3523 66.8862 60.4948 70.4792 60.3308 74.5667C60.1698 78.5805 58.7494 83.0496 56.3695 88.9C59.6896 88.1456 62.3614 87.2607 65.1205 85.7593C67.9875 84.1991 70.9609 81.9712 74.8583 78.5231Z" fill="#030303" stroke="#F2F2F2" stroke-width="0.5"/>
<path d="M48.1279 40.3164C41.1485 40.3164 35.4904 45.9745 35.4902 52.9541C35.4902 59.9339 41.1484 65.5927 48.1279 65.5928C55.1075 65.5928 60.7656 59.9339 60.7656 52.9541C60.7654 45.9745 55.1074 40.3164 48.1279 40.3164Z" fill="#030303" stroke="white" stroke-width="0.5"/>
<path d="M61.5 1.5L65.7548 2.91825C67.9152 3.6384 70.0186 4.51967 72.0471 5.55462C75.0757 7.0998 77.9217 8.97943 80.5317 11.1583L83.1424 13.3378L84.0839 14.3674C88.068 18.7243 91.5896 23.4826 94.5923 28.5658L97.97 36.4889" stroke="white"/>
</svg>
